# xmcd
#
# Track frame offsets: 
#        150
#        15387
#        36529
#        74996
#        107121
#        144081
#        181014
#        210604
#
# Disc length: 3158 seconds
#
# Revision: 0
# Processed by: cddbd v1.5.2PL0 Copyright (c) Steve Scherf et al.
# Submitted via: ExactAudioCopy v0.95b4
#
DISCID=6f0c5408
DTITLE=Ayu - Connected
DYEAR=1900
DGENRE=
TTITLE0=radio edit
TTITLE1=push´s radio edit
TTITLE2=tall2xlc vocal remix
TTITLE3=talla2xlc instrumental remix
TTITLE4=push´s club remix
TTITLE5=push´s instrumental dub remix
TTITLE6=extended 12'' mix
TTITLE7=instrumental 12'' mix
EXTD=
EXTT0=
EXTT1=
EXTT2=
EXTT3=
EXTT4=
EXTT5=
EXTT6=
EXTT7=
PLAYORDER=
